<?xml version="1.0" encoding="utf-8"?>
<!-- Generator: Adobe Illustrator 24.0.0, SVG Export Plug-In . SVG Version: 6.00 Build 0)  -->
<svg version="1.1" id="Layer_1" xmlns="http://www.w3.org/2000/svg" xmlns:xlink="http://www.w3.org/1999/xlink" x="0px" y="0px"
	 viewBox="0 0 61 60" style="enable-background:new 0 0 61 60;" xml:space="preserve">
<style type="text/css">
	.st0{fill:#FFFFFF;stroke:#222221;stroke-width:1.2;stroke-linecap:round;stroke-linejoin:round;}
	.st1{fill:#2484BF;stroke:#222221;stroke-width:1.2;stroke-linecap:round;stroke-linejoin:round;}
</style>
<g>
	<path class="st0" d="M50.7,44.1l-19.2,3.8V18.4l19.3,5.5c1.1,0.2,1.9,1.2,1.9,2.3v15.5C52.7,42.9,51.9,43.9,50.7,44.1z"/>
	<path class="st0" d="M37.4,27.6l9.6,2.7v5.9l-9.6,1.9V27.6z M12.4,44.1l19.2,3.8V18.4l-19.3,3.4c-1.1,0.2-1.9,1.2-1.9,2.3v17.5
		C10.3,42.9,11.2,43.9,12.4,44.1L12.4,44.1z"/>
	<path class="st0" d="M16.9,44.9l7,1.4v-9.7c0-0.6-0.5-1.1-1.1-1.2l-6-0.2c-0.4,0.1-0.7,0.4-0.7,0.9V44
		C16.2,44.5,16.5,44.8,16.9,44.9L16.9,44.9z"/>
	<path class="st1" d="M11.7,21.3l-7.8,8.5l5.4-0.2l7.4-9.1L11.7,21.3z"/>
	<path class="st0" d="M16.6,20.6l-7.4,9l5.5-0.2l6.9-9.5L16.6,20.6z M31.5,18.4l-5,0.7l-6.5,10.1l5.6-0.2L31.5,18.4z"/>
	<path class="st1" d="M21.6,19.9l-6.9,9.5l5.4-0.2l6.5-10.1L21.6,19.9z"/>
	<path class="st0" d="M29.2,9.7l-15.7,3.5c-1,0.1-1.8,1-1.8,2v6.1l19.8-2.9v-6.7C31.5,10.5,30.4,9.6,29.2,9.7L29.2,9.7z"/>
</g>
</svg>
