<?xml version="1.0" encoding="utf-8"?>
<!-- Generator: Adobe Illustrator 24.0.0, SVG Export Plug-In . SVG Version: 6.00 Build 0)  -->
<svg version="1.1" id="Layer_1" xmlns="http://www.w3.org/2000/svg" xmlns:xlink="http://www.w3.org/1999/xlink" x="0px" y="0px"
	 viewBox="0 0 61 60" style="enable-background:new 0 0 61 60;" xml:space="preserve">
<style type="text/css">
	.st0{filter:url(#Adobe_OpacityMaskFilter);}
	.st1{fill-rule:evenodd;clip-rule:evenodd;fill:#FFFFFF;}
	.st2{mask:url(#b_1_);}
	.st3{fill-rule:evenodd;clip-rule:evenodd;fill:none;stroke:#222221;stroke-width:1.2;stroke-linecap:round;stroke-linejoin:round;}
	.st4{fill:#2484BF;}
</style>
<g>
	<g transform="translate(10.8 10.8)">
		<defs>
			<filter id="Adobe_OpacityMaskFilter" filterUnits="userSpaceOnUse" x="-1.2" y="-0.5" width="40.1" height="38.6">
				<feColorMatrix  type="matrix" values="1 0 0 0 0  0 1 0 0 0  0 0 1 0 0  0 0 0 1 0"/>
			</filter>
		</defs>
		<mask maskUnits="userSpaceOnUse" x="-1.2" y="-0.5" width="40.1" height="38.6" id="b_1_">
			<g class="st0">
				<path id="a_1_" class="st1" d="M18.6,37.9c11.3-0.3,18.6-9,18.6-19.3S28.9,0,18.6,0S0,8.3,0,18.6S7.3,38.3,18.6,37.9z"/>
			</g>
		</mask>
		<g class="st2">
			<path class="st3" d="M27.4,37c-0.4-0.2-0.9-0.4-1.4-0.5h-1.4c-0.7,0-1.4-0.6-1.4-1.2c0-0.7,0.6-1.4,1.2-1.4
				c0.5,0,0.9-0.4,0.9-0.8c0,0,0,0,0,0v-0.4c0-0.6,0.5-1.2,1.1-1.2c0.9,0,1.5-0.7,1.5-1.6l0.1-4.5c0-0.7-0.6-1.4-1.4-1.4
				s-1.4,0.6-1.4,1.4v0.5c0,0.6-0.5,1.1-1.1,1.1c0,0,0,0,0,0c-0.6,0-1.1-0.5-1.1-1.1c0,0,0,0,0,0v-0.2c0-0.7-0.6-1.4-1.4-1.4h-3.7
				c-0.7,0-1.4,0.6-1.4,1.4l0.1,5.9c0,0.7-0.6,1.4-1.4,1.4h-1c-0.7,0-1.4,0.6-1.4,1.4v2.1 M28.7,0.1h-4.4c-0.7,0-1.2,0.6-1.2,1.4
				v3.7c0,0.7,0.6,1.2,1.2,1.2l6.8-0.1c0.6,0,1.1,0.5,1.1,1.1v0.1c0,0.5-0.4,1-1,1l-4.7,0.1c-0.6,0-1.2,0.6-1.2,1.2
				s-0.5,1.1-1.1,1.2h-0.6c-0.2,0-0.5-0.2-0.5-0.5v-0.5c0-0.5-0.4-0.9-0.8-0.9c0,0,0,0,0,0h-2c-0.5,0-0.9,0.4-0.9,0.8c0,0,0,0,0,0
				c0,0.5-0.4,0.9-0.8,0.9c0,0,0,0,0,0h-1.7c-0.6,0-1.1,0.5-1.1,1.1c0,0,0,0,0,0v3.6c0,0.6,0.5,1.1,1.1,1.1h1.6
				c0.5,0,0.9-0.4,0.9-0.8c0,0,0,0,0,0c0-0.4,0.2-0.7,0.7-0.7l4.2-0.1c0.6,0,1.1,0.5,1.1,1.1v1.2c0,0.6,0.6,1.2,1.2,1.2h3.1
				c0.6,0,1.2,0.5,1.2,1.2c0,0.6,0.5,1.1,1.1,1.1h0.9c0.4,0,0.7,0.4,0.7,0.7v0.1c0,0.6,0.5,1.1,1.1,1.1h3.1 M1.8,29.8
				c0.8,0.8,1.5,1.3,2,1.4c0,0.4,0.5,0.7,0.7,0.9c0.2,0.2,0.5,0.3,0.8,0.3c0.6,0,1.2-0.6,1.2-1.2v-3.5c0-0.9-0.7-1.5-1.6-1.5
				c-0.5,0-0.9-0.4-0.9-0.8c0,0,0,0,0,0v-0.9c0-0.4,0.2-0.6,0.6-0.6c0.6,0,1.2-0.6,1.2-1.2l-0.1-5.4c0-0.9-0.6-1.5-1.5-1.5
				c-0.7,0-1.2-0.5-1.2-1.2c0-0.7,0.6-1.4,1.4-1.4h0.1c1,0,1.9-0.9,1.9-2h0.1c1.1,0,2.1-1,2.1-2.1h1c0.7,0,1.4-0.6,1.4-1.4V5
				c0-0.7-0.6-1.4-1.4-1.4c-0.5,0-1-0.4-1-1V2.2"/>
			<path class="st4" d="M26.1,36.5h-1.4c-0.7,0-1.4-0.6-1.4-1.2c0-0.7,0.6-1.4,1.2-1.4c0.5,0,0.9-0.4,0.9-0.8c0,0,0,0,0,0v-0.4
				c0-0.6,0.5-1.2,1.1-1.2c0.9,0,1.5-0.7,1.5-1.6l0.1-4.5c0-0.7-0.6-1.4-1.4-1.4s-1.4,0.6-1.4,1.4v0.5c0,0.6-0.5,1.1-1.1,1.1
				c0,0,0,0,0,0c-0.6,0-1.1-0.5-1.1-1.1c0,0,0,0,0,0v-0.2c0-0.7-0.6-1.4-1.4-1.4h-3.7c-0.7,0-1.4,0.6-1.4,1.4l0.1,5.9
				c0,0.7-0.6,1.4-1.4,1.4h-1c-0.7,0-1.4,0.6-1.4,1.4v2.1c2.4,1.1,5.1,1.7,7.9,1.7c2.2,0,4.3-0.4,6.3-1.1
				C27.2,36.8,26.7,36.5,26.1,36.5z M29.2,0l-5,0.1c-0.7,0-1.2,0.6-1.2,1.4v3.7c0,0.7,0.6,1.2,1.2,1.2l6.8-0.1
				c0.6,0,1.1,0.5,1.1,1.1v0.1c0,0.5-0.4,1-1,1l-4.7,0.1c-0.6,0-1.2,0.6-1.2,1.2s-0.5,1.1-1.1,1.2h-0.6c-0.2,0-0.5-0.2-0.5-0.5v-0.5
				c0-0.5-0.4-0.9-0.8-0.9c0,0,0,0,0,0h-2c-0.5,0-0.9,0.4-0.9,0.8c0,0,0,0,0,0c0,0.5-0.4,0.9-0.8,0.9c0,0,0,0,0,0h-1.7
				c-0.6,0-1.1,0.5-1.1,1.1c0,0,0,0,0,0v3.6c0,0.6,0.5,1.1,1.1,1.1h1.6c0.5,0,0.9-0.4,0.9-0.8c0,0,0,0,0,0c0-0.4,0.2-0.7,0.7-0.7
				l4.2-0.1c0.6,0,1.1,0.5,1.1,1.1v1.2c0,0.6,0.6,1.2,1.2,1.2h3.1c0.6,0,1.2,0.5,1.2,1.2c0,0.6,0.5,1.1,1.1,1.1h0.9
				c0.4,0,0.7,0.4,0.7,0.7v0.1c0,0.6,0.5,1.1,1.1,1.1h3.1c0.7-2,1.1-4.2,1.1-6.4C39.1,9.5,34.9,3.3,29.2,0L29.2,0z M4.1,31.2
				c0,0.7,0.6,1.2,1.2,1.2c0.6,0,1.2-0.6,1.2-1.2v-3.5c0-0.9-0.7-1.5-1.6-1.5c-0.5,0-0.9-0.4-0.9-0.8c0,0,0,0,0,0v-0.9
				c0-0.4,0.2-0.6,0.6-0.6c0.6,0,1.2-0.6,1.2-1.2l-0.1-5.4c0-0.9-0.6-1.5-1.5-1.5c-0.7,0-1.2-0.5-1.2-1.2c0-0.7,0.6-1.4,1.4-1.4h0.1
				c1,0,1.9-0.9,1.9-2h0.1c1.1,0,2.1-1,2.1-2.1h1c0.7,0,1.4-0.6,1.4-1.4V5c0-0.7-0.6-1.4-1.4-1.4c-0.5,0-1-0.4-1-1V2.2
				C2.8,5.4-1.2,11.8-1.2,19c0,4.2,1.4,8.3,4,11.6h1C3.8,30.3,4.1,30.7,4.1,31.2L4.1,31.2z"/>
		</g>
	</g>
	<circle class="st3" cx="29.3" cy="29.8" r="19"/>
</g>
</svg>
