<?xml version="1.0" encoding="utf-8"?>
<!-- Generator: Adobe Illustrator 24.0.0, SVG Export Plug-In . SVG Version: 6.00 Build 0)  -->
<svg version="1.1" id="Layer_1" xmlns="http://www.w3.org/2000/svg" xmlns:xlink="http://www.w3.org/1999/xlink" x="0px" y="0px"
	 viewBox="0 0 61 60" style="enable-background:new 0 0 61 60;" xml:space="preserve">
<style type="text/css">
	.st0{fill:#FFFFFF;stroke:#222221;stroke-width:1.2;stroke-linecap:round;stroke-linejoin:round;}
	.st1{fill:none;stroke:#222221;stroke-width:1.2;stroke-linecap:round;stroke-linejoin:round;}
	.st2{fill:#FFFFFF;}
	.st3{fill:#2484BF;stroke:#222221;stroke-width:1.2;stroke-linecap:round;stroke-linejoin:round;}
</style>
<g>
	<path class="st0" d="M8.1,37.9L21,41.8V12.1L8,17.1c-1.1,0.2-2,1.2-1.9,2.4v16.1C6,36.8,6.9,37.8,8.1,37.9L8.1,37.9z M42.4,37.6
		L21,41.8V12.1l19.4,3.5c1.1,0.2,2,1.2,1.9,2.4V37.6"/>
	<path class="st1" d="M42.4,20L21,17.5l-15,4.4 M28.9,18.4V14 M36.4,19.3v-4"/>
	<path class="st2" d="M21,41.8l19.2,6l18.4-6l-16.2-4.2L21,41.8z"/>
	<path class="st1" d="M21,41.8l16.1,5c2,0.6,4.2,0.6,6.3,0l12.9-4.2c0.7-0.2,0.7-1.2,0-1.4l-13.8-3.6C42.4,37.5,21,41.8,21,41.8z
		 M42.4,37.6L21,35.1 M31.8,24.6v-2.1c0-0.6,0.5-1.1,1.1-1.1H33l1.9,0.2c0.6,0,1.1,0.5,1.1,1.1v2.1"/>
	<path class="st3" d="M40.7,40.1l-11.8,1.1l0.5-17.2l10.4,1L40.7,40.1z"/>
	<path class="st3" d="M28.9,41.2l-4.7-1.5l1.3-14.5l3.9-1.1L28.9,41.2z"/>
</g>
</svg>
