<?xml version="1.0" encoding="utf-8"?>
<!-- Generator: Adobe Illustrator 24.0.0, SVG Export Plug-In . SVG Version: 6.00 Build 0)  -->
<svg version="1.1" id="Layer_1" xmlns="http://www.w3.org/2000/svg" xmlns:xlink="http://www.w3.org/1999/xlink" x="0px" y="0px"
	 viewBox="0 0 61 60" style="enable-background:new 0 0 61 60;" xml:space="preserve">
<style type="text/css">
	.st0{fill:#FFFFFF;stroke:#222221;stroke-width:1.2;stroke-linecap:round;stroke-linejoin:round;}
	.st1{fill:#2484BF;stroke:#222221;stroke-width:1.2;stroke-linecap:round;stroke-linejoin:round;}
	.st2{fill:#FFFFFF;}
</style>
<g>
	<path class="st0" d="M39.1,35.3l8.2,11.6c0.8,1.1,0.7,2.5-0.2,3.5c-0.8,0.9-2.2,1.7-4.6,2c-5.5,0.8-6.4-1.1-6.4-1.1l-5.3-7.7
		L39.1,35.3L39.1,35.3z M12.1,22.1c-0.2,0.8,0.2,1.6,0.9,1.8l6.2,2c0.7,0.2,0,0,0.3-0.7l0.3-0.9c0.2-0.7,1.4-1.8,0.6-2l-6.2-2
		c-0.7-0.2-1.6,0.2-1.8,0.9L12.1,22.1L12.1,22.1z"/>
	<path class="st0" d="M30.3,34.4l0,0.3c-0.3-2.3,1.3-4.4,3.6-4.8l2.3-0.3L35.5,24c-0.3-1.9-0.4-5.3,2.7-5.7c0.3,0,0.3,0.3,0.3,0.3
		l0.4,3l0.8,6.1l0.7,5.2l0.3,1.9c0.7,5.1-2.9,9.8-8,10.5c-5.1,0.7-9.8-2.9-10.5-8l-0.3-1.9L30.3,34.4L30.3,34.4z"/>
	<g transform="translate(14.574 8.4)">
		<path class="st0" d="M3.7,30.9c0.1,0.9,0.9,1.5,1.8,1.4c0,0,0,0,0,0l16-2.2c0.9-0.1,1.5-0.9,1.4-1.8c0,0,0,0,0,0L19.2,1.6
			c-0.1-0.9-0.9-1.5-1.8-1.4c0,0,0,0,0,0l-16,2.2C0.6,2.5,0,3.3,0.1,4.2L3.7,30.9z"/>
		<path class="st1" d="M2.4,5.8l14.4-2l2.9,21.6l-14.4,2L2.4,5.8z"/>
		<circle class="st2" cx="11.1" cy="15.7" r="2.2"/>
		<circle class="st2" cx="10.5" cy="11.1" r="1.5"/>
		<circle class="st2" cx="6.8" cy="13.9" r="1.5"/>
		<circle class="st2" cx="7.4" cy="18.5" r="1.5"/>
		<circle class="st2" cx="11.7" cy="20.3" r="1.5"/>
		<circle class="st2" cx="15.4" cy="17.4" r="1.5"/>
		<circle class="st2" cx="14.7" cy="12.9" r="1.5"/>
	</g>
	<path class="st2" d="M31.1,40.6l7.7-1l-1.3-9.7l-3.8,0.6l-2,3.5l-1.3,1.5L31.1,40.6z"/>
	<path class="st0" d="M31.1,40l-0.7-5.2c-0.3-2.3,1.3-4.4,3.6-4.8l2.5-0.3 M14.6,37.9c0.1,0.8,0.8,1.3,1.6,1.2l2.9-0.4
		c0.8-0.1,1.3-0.8,1.2-1.6l-0.1-0.9c-0.1-0.8-0.8-1.3-1.6-1.2l-2.9,0.4c-0.8,0.1-1.3,0.8-1.2,1.6L14.6,37.9L14.6,37.9z"/>
	<path class="st0" d="M12.7,34.4c0.1,0.8,0.8,1.3,1.6,1.2l4.3-0.6c0.8-0.1,1.3-0.8,1.2-1.6l-0.1-0.9c-0.1-0.8-0.8-1.3-1.6-1.2
		l-4.3,0.6c-0.8,0.1-1.3,0.8-1.2,1.6C12.6,33.4,12.7,34.4,12.7,34.4z M12.9,30.4c0.1,0.8,0.8,1.3,1.6,1.2l3.6-0.5
		c0.8-0.1,1.3-0.8,1.2-1.6l-0.1-0.9c-0.1-0.8-0.8-1.3-1.6-1.2L14,27.8c-0.8,0.1-1.3,0.8-1.2,1.6C12.7,29.5,12.9,30.4,12.9,30.4z"/>
</g>
</svg>
