<?xml version="1.0" encoding="utf-8"?>
<!-- Generator: Adobe Illustrator 24.0.0, SVG Export Plug-In . SVG Version: 6.00 Build 0)  -->
<svg version="1.1" id="Layer_1" xmlns="http://www.w3.org/2000/svg" xmlns:xlink="http://www.w3.org/1999/xlink" x="0px" y="0px"
	 viewBox="0 0 61 60" style="enable-background:new 0 0 61 60;" xml:space="preserve">
<style type="text/css">
	.st0{fill:#2484BF;stroke:#222221;stroke-width:1.091;stroke-linecap:round;stroke-linejoin:round;}
	.st1{fill:#FFFFFF;stroke:#222221;stroke-width:1.091;stroke-linecap:round;stroke-linejoin:round;}
	.st2{fill:none;stroke:#222221;stroke-width:1.091;stroke-linecap:round;stroke-linejoin:round;}
</style>
<g>
	<path class="st0" d="M35.8,12.4L26.8,12c-1,0-1.9,0.7-1.9,1.6l-0.3,6.1c0,1,0.7,1.9,1.6,1.9l8.9,0.4c1,0,1.9-0.7,1.9-1.6l0.3-6.1
		C37.5,13.4,36.8,12.5,35.8,12.4z M34.4,19.3l-7-0.3l0.2-4.1l7,0.3L34.4,19.3z"/>
	<path class="st1" d="M44.5,47.9l-30.2-1.6c-1,0-1.7-0.9-1.7-1.9l0.9-15.7c0-1,0.9-1.7,1.9-1.7l30.2,1.6c1,0,1.7,0.9,1.7,1.9
		l-0.9,15.7C46.4,47.2,45.5,48,44.5,47.9L44.5,47.9z"/>
	<path class="st1" d="M47.2,34.4l-34-1.9c-1,0-1.7-0.9-1.7-1.9l0.7-11.9c0-1,0.9-1.7,1.9-1.7l34,1.9c1,0,1.7,0.9,1.7,1.9l-0.7,12
		C49,33.7,48.2,34.5,47.2,34.4z"/>
	<g>
		<path class="st0" d="M20,37c-1.2-0.1-2.1-1.1-2-2.2l0.2-3.7c0.1-1.2,1.1-2.1,2.2-2c1.2,0.1,2.1,1.1,2,2.2l-0.1,3.6
			C22.1,36.1,21.2,37,20,37z M39.9,38c-1.2-0.1-2.1-1.1-2-2.2l0.2-3.7c0.1-1.2,1.1-2.1,2.2-2c1.2,0.1,2.1,1.1,2,2.2L42.1,36
			C42.1,37.2,41,38.1,39.9,38L39.9,38z"/>
	</g>
	<path class="st2" d="M20.4,29l0.7-11.5 M40.4,30l0.5-11.5"/>
</g>
</svg>
