<?xml version="1.0" encoding="utf-8"?>
<!-- Generator: Adobe Illustrator 24.0.0, SVG Export Plug-In . SVG Version: 6.00 Build 0)  -->
<svg version="1.1" id="Layer_1" xmlns="http://www.w3.org/2000/svg" xmlns:xlink="http://www.w3.org/1999/xlink" x="0px" y="0px"
	 viewBox="0 0 157 140" style="enable-background:new 0 0 157 140;" xml:space="preserve">
<style type="text/css">
	.st0{fill-rule:evenodd;clip-rule:evenodd;fill:#2484BF;}
	.st1{filter:url(#Adobe_OpacityMaskFilter);}
	.st2{fill-rule:evenodd;clip-rule:evenodd;fill:#FFFFFF;}
	
		.st3{mask:url(#mask-2_1_);fill-rule:evenodd;clip-rule:evenodd;fill:#FFFFFF;stroke:#2484BF;stroke-width:1.35;stroke-linecap:round;stroke-linejoin:round;}
	.st4{fill:none;stroke:#595957;stroke-width:1.5;stroke-linecap:round;stroke-linejoin:round;}
	.st5{fill:none;stroke:#2484BF;stroke-width:1.5;stroke-linecap:round;stroke-linejoin:round;}
	.st6{filter:url(#Adobe_OpacityMaskFilter_1_);}
	.st7{mask:url(#mask-4_1_);fill-rule:evenodd;clip-rule:evenodd;fill:#FFFFFF;}
	.st8{filter:url(#Adobe_OpacityMaskFilter_2_);}
	.st9{mask:url(#mask-6_1_);fill-rule:evenodd;clip-rule:evenodd;fill:#FFFFFF;}
	.st10{filter:url(#Adobe_OpacityMaskFilter_3_);}
	
		.st11{mask:url(#mask-8_1_);fill-rule:evenodd;clip-rule:evenodd;fill:#FFFFFF;stroke:#2484BF;stroke-width:1.35;stroke-linecap:round;stroke-linejoin:round;}
	.st12{fill:#FFFFFF;stroke:#565656;stroke-width:1.35;stroke-linecap:round;stroke-linejoin:round;}
	.st13{fill:none;stroke:#2484BF;stroke-width:1.35;stroke-linecap:round;stroke-linejoin:round;}
	.st14{fill:none;stroke:#FFFFFF;stroke-width:1.35;stroke-linecap:round;stroke-linejoin:round;}
	.st15{fill:none;stroke:#565656;stroke-width:1.35;stroke-linecap:round;stroke-linejoin:round;}
	.st16{fill:#565656;}
	.st17{fill:none;stroke:#565656;stroke-width:1.5;stroke-linecap:round;stroke-linejoin:round;}
	.st18{fill:#FFFFFF;}
</style>
<title>illu-orders</title>
<g id="About-us">
	<g id="pillars_illustrations" transform="translate(-67.000000, -198.000000)">
		<g id="illu-orders" transform="translate(67.000000, 198.000000)">
			<path id="Fill-1" class="st0" d="M139.9,122.2c15.2-15.5,20.2-42.6,14.4-66.9c-5.8-24.4-22.2-46.1-42.3-52.8
				C92-4.3,68.5,4,47,14.9C25.5,25.9,6.1,39.6,1.3,57.6S6,97.7,20.6,113.2c14.6,15.4,34.1,24,56.5,26.3
				C99.6,141.7,124.8,137.7,139.9,122.2z"/>
			<g id="Group-9" transform="translate(36.000000, 32.000000)">
				<g id="schedule" transform="translate(14.000000, 0.000000)">
					<g id="Group-3" transform="translate(13.900000, 3.900000)">
						<g id="Clip-2">
						</g>
						<defs>
							<filter id="Adobe_OpacityMaskFilter" filterUnits="userSpaceOnUse" x="-3.5" y="-4" width="28.5" height="26">
								<feColorMatrix  type="matrix" values="1 0 0 0 0  0 1 0 0 0  0 0 1 0 0  0 0 0 1 0"/>
							</filter>
						</defs>
						<mask maskUnits="userSpaceOnUse" x="-3.5" y="-4" width="28.5" height="26" id="mask-2_1_">
							<g class="st1">
								<path id="path-1_1_" class="st2" d="M7.8,0.2L14.6,1c3.5,0.2,6.2,3.1,6.2,6.6v7.8c0.1,1.4-1,2.5-2.3,2.5s-2.4-1.1-2.4-2.4
									V7.7c0-0.9-0.7-1.7-1.7-1.8h-0.2l0,0L7.2,4.9c-0.9,0-1.7,0.8-1.7,1.8v7.8c0,1.3-1.1,2.4-2.4,2.4s-2.4-1.1-2.4-2.4V6.8
									c0-3.7,3-6.6,6.6-6.6H7.8L7.8,0.2z"/>
							</g>
						</mask>
						<polygon id="Fill-1_1_" class="st3" points="-2.8,-3.3 24.4,-3.3 24.4,21.4 -2.8,21.4 						"/>
					</g>
					<g id="Group-8" transform="translate(13.900000, 3.900000)">
						<path id="Stroke-4" class="st4" d="M18.5,17.9c-1.3,0-2.4-1.1-2.4-2.4V7.7c0-0.9-0.7-1.7-1.7-1.8c-0.1,0-0.2,0-0.2,0L7.2,4.9
							c-0.9,0-1.7,0.8-1.7,1.8v7.8c0,1.3-1.1,2.4-2.4,2.4s-2.4-1.1-2.4-2.4V6.8c0-3.7,3-6.6,6.6-6.6c0.2,0,0.4,0,0.6,0L14.6,1
							c3.5,0.2,6.2,3.1,6.2,6.6v7.8C20.9,16.8,19.9,17.9,18.5,17.9z"/>
						<path id="Stroke-6" class="st5" d="M2.1,11.3l0.2-5.7c0-2.1,2.3-4,4.3-4c0,0,1.8,0.1,5.2,0.4l0.7,0.3"/>
					</g>
					<g id="Group-11" transform="translate(25.799999, 0.400000)">
						<g id="Clip-10">
						</g>
						<defs>
							<filter id="Adobe_OpacityMaskFilter_1_" filterUnits="userSpaceOnUse" x="-3" y="-3.2" width="27.2" height="24.6">
								<feColorMatrix  type="matrix" values="1 0 0 0 0  0 1 0 0 0  0 0 1 0 0  0 0 0 1 0"/>
							</filter>
						</defs>
						<mask maskUnits="userSpaceOnUse" x="-3" y="-3.2" width="27.2" height="24.6" id="mask-4_1_">
							<g class="st6">
								<path id="path-3_1_" class="st2" d="M7.6,0.3l6.8,0.8c3.5,0.2,6.2,3.1,6.2,6.6v7.8c0,1.3-1,2.4-2.3,2.4
									c-1.3,0-2.4-1.1-2.4-2.4V7.7c0-0.9-0.7-1.7-1.7-1.8h-0.2l0,0L7,5C6.1,5,5.3,5.8,5.3,6.8v7.9c0,1.3-1.1,2.4-2.4,2.4
									S0.5,16,0.5,14.7V6.9c0-3.7,3-6.6,6.6-6.6H7.6L7.6,0.3z"/>
							</g>
						</mask>
						<polygon id="Fill-9" class="st7" points="-3,-3.2 24.2,-3.2 24.2,21.4 -3,21.4 						"/>
					</g>
					<g id="Group-18" transform="translate(25.799999, 0.400000)">
						<path id="Stroke-12" class="st4" d="M18.3,17.9c-1.3,0-2.4-1.1-2.4-2.4V7.7c0-0.9-0.7-1.7-1.7-1.8c-0.1,0-0.2,0-0.2,0L7,5
							C6.1,5,5.3,5.8,5.3,6.8v7.9c0,1.3-1.1,2.4-2.4,2.4S0.5,16,0.5,14.7V6.9c0-3.7,3-6.6,6.6-6.6c0.2,0,0.4,0,0.6,0l6.8,0.8
							c3.5,0.2,6.2,3.1,6.2,6.6v7.8C20.7,16.8,19.7,17.9,18.3,17.9z"/>
						<path id="Stroke-14" class="st5" d="M19,15.5c0,0.4-0.3,0.7-0.7,0.7s-0.7-0.3-0.7-0.7V8.7"/>
						<path id="Stroke-16" class="st5" d="M2.9,15.4c-0.4,0-0.7-0.3-0.7-0.7V6.9C2.1,4.1,4.4,2,7,2c0.1,0,0.2,0,0.3,0l6.9,0.8h0.1"
							/>
					</g>
					<g id="Group-21" transform="translate(17.400000, 13.000000)">
						<g id="Clip-20">
						</g>
						<defs>
							<filter id="Adobe_OpacityMaskFilter_2_" filterUnits="userSpaceOnUse" x="-2.9" y="-3.5" width="50.9" height="70.6">
								<feColorMatrix  type="matrix" values="1 0 0 0 0  0 1 0 0 0  0 0 1 0 0  0 0 0 1 0"/>
							</filter>
						</defs>
						<mask maskUnits="userSpaceOnUse" x="-2.9" y="-3.5" width="50.9" height="70.6" id="mask-6_1_">
							<g class="st8">
								<path id="path-5_1_" class="st2" d="M4.6,0c0,0,0.1,0,0.1,0l35.1,3.4c0.9,0.1,1.6,0.8,1.7,1.8l3,52.4c0.1,1-0.7,1.9-1.7,2
									L0.6,63.6L2.7,1.8C2.7,0.8,3.6,0,4.6,0z"/>
							</g>
						</mask>
						<polygon id="Fill-19" class="st9" points="-2.9,-3.5 48,-3.5 48,67.1 -2.9,67.1 						"/>
					</g>
					<g id="Group-26" transform="translate(17.400000, 13.000000)">
						<path id="Stroke-22" class="st4" d="M42.8,59.6L0.6,63.6L2.7,1.8c0-1,0.9-1.8,1.9-1.8c0,0,0.1,0,0.1,0l35.1,3.4
							c0.9,0.1,1.6,0.8,1.7,1.8l3,52.4C44.6,58.6,43.8,59.5,42.8,59.6z"/>
						<polyline id="Stroke-24" class="st5" points="2.1,62.1 4.2,1.6 40,5 						"/>
					</g>
					<g id="Group-29" transform="translate(0.600000, 13.000000)">
						<g id="Clip-28">
						</g>
						<defs>
							<filter id="Adobe_OpacityMaskFilter_3_" filterUnits="userSpaceOnUse" x="-4.1" y="-3.7" width="27.7" height="71.5">
								<feColorMatrix  type="matrix" values="1 0 0 0 0  0 1 0 0 0  0 0 1 0 0  0 0 0 1 0"/>
							</filter>
						</defs>
						<mask maskUnits="userSpaceOnUse" x="-4.1" y="-3.7" width="27.7" height="71.5" id="mask-8_1_">
							<g class="st10">
								<path id="path-7_1_" class="st2" d="M19.4,1.8c0.1,0.2,0.1,0.4,0.1,0.6l-2.1,61.2l-16-5.1c-0.8-0.3-1.4-1.1-1.3-2L4.6,5.3
									C4.7,4.6,5.2,3.9,6,3.7l11.1-3.2C18.1,0.3,19.1,0.8,19.4,1.8z"/>
							</g>
						</mask>
						<polygon id="Fill-27" class="st11" points="-3.4,-3 23,-3 23,67.1 -3.4,67.1 						"/>
					</g>
					<path id="Stroke-30" class="st4" d="M18,76.6L2,71.5c-0.8-0.3-1.4-1.1-1.3-2l4.6-51.2c0.1-0.8,0.6-1.4,1.4-1.6l11.1-3.2
						c1-0.3,2,0.3,2.3,1.3c0.1,0.2,0.1,0.4,0.1,0.6L18,76.6L18,76.6z"/>
					<path id="Line" class="st5" d="M17.7,14.8C10.3,16.9,6.5,18,6.5,18S4.9,35.3,1.7,69.8"/>
				</g>
				<g id="Group" transform="translate(0.000000, 10.000000)">
					<g id="Path" transform="translate(2.728663, 0.000000)">
						<path class="st12" d="M24.4,20.6c-0.9-2.7-3.9-1.8-3.9-1.8l-0.2,0.1L17.9,2.8c-0.3-1.8-2-3-3.8-2.8c-1.8,0.3-3,2-2.8,3.8
							L14,20.8l0,0L6.3,5.5C5.4,3.9,3.5,3.2,1.8,4s-2.3,2.8-1.5,4.4l7.2,14.4l0,0l0.2,0.4c0,0,0.1,0.1,0.1,0.1
							C3.6,25.2,1.3,30,2.7,34.5c1.2,3.7,4.6,6.2,8.3,6.3l0,0c0.4,1.3,1.8,2,3.1,1.6l8.8-2.8c1.3-0.4,2-1.8,1.6-3.1l-0.6-2
							c2.2-2.3,3.2-5.7,2.1-9c0-0.1-0.1-0.2-0.1-0.3l0,0C25.9,25.2,25.1,22.8,24.4,20.6z"/>
						<path class="st13" d="M23,33.7c2-2.1,2.7-5,1.8-7.8c0,0,0-0.1,0-0.2l0-0.1l-0.4-1.2l0,0l-1.1-3.4c-0.4-1.4-1.9-1.1-2.3-1
							l-1.6,0.5l-6.7,2.1"/>
						<path class="st14" d="M5.7,37.1C7,38.6,9,39.5,11,39.5l0.9,0l0.6,1.6"/>
						<path class="st13" d="M5.1,6.1C4.7,5.2,3.6,4.7,2.7,5c-0.1,0-0.2,0.1-0.3,0.1C1.4,5.7,1,6.9,1.5,7.9l5.2,10.4"/>
						<path class="st13" d="M14.9,18.7l-2.4-15c-0.2-1,0.4-2,1.4-2.3c0.1,0,0.2-0.1,0.3-0.1c0.5-0.1,1.1,0,1.5,0.4s0.7,0.8,0.8,1.3"
							/>
					</g>
					<g id="Path_1_" transform="translate(0.000000, 25.142676)">
						<path class="st12" d="M8.5,6.6c0.8,1.6,0.1,3.5-1.4,4.3c-1.6,0.8-3.5,0.1-4.3-1.4L0.3,4.6C-0.4,3,0.2,1.1,1.8,0.3
							s3.5-0.1,4.3,1.4L8.5,6.6z"/>
						<path class="st13" d="M6.5,9.8c-0.1,0-0.2,0.1-0.3,0.1c-0.9,0.3-1.9-0.1-2.3-1L1.5,4.1c-0.2-0.5-0.3-1-0.1-1.5
							c0.2-0.5,0.5-0.9,1-1.1c0.1,0,0.2-0.1,0.3-0.1"/>
					</g>
					<g id="Path_2_" transform="translate(4.580255, 18.808281)">
						<path class="st12" d="M8.5,7.9c0.8,1.6,0.1,3.5-1.4,4.3s-3.5,0.1-4.3-1.4L0.4,5.9c-0.8-1.6-0.1-3.5,1.4-4.3
							C3.4,0.8,5.3,1.5,6.1,3L8.5,7.9z"/>
						<path class="st13" d="M6.5,11c-0.1,0-0.2,0.1-0.3,0.1c-0.9,0.3-1.9-0.1-2.3-1L1.5,5.3C1,4.4,1.4,3.2,2.4,2.7
							c0.1,0,0.2-0.1,0.3-0.1"/>
						<path class="st15" d="M18.4,0l-7.9,2.5c-1.7,0.5-2.6,2.3-2.1,4s2.3,2.6,4,2.1l6.7-1.3"/>
						<line class="st15" x1="11" y1="8.8" x2="12.8" y2="14.4"/>
					</g>
				</g>
				<g id="Group-19" transform="translate(42.000000, 2.000000)">
					
						<g id="Group-6" transform="translate(13.578217, 37.993844) rotate(-9.000000) translate(-13.578217, -37.993844) translate(2.078217, 28.993844)">
						<circle id="Oval" class="st16" cx="3" cy="2.5" r="2.2"/>
						<path id="Path_3_" class="st16" d="M21.2,7.5c-0.3,0-0.5-0.1-0.7-0.4c-1.7-2.3-4.6-1.2-4.7-1.1c-0.5,0.2-1-0.1-1.1-0.5
							c-0.2-0.4,0-1,0.5-1.1c0,0,1.1-0.4,2.4-0.4h0c1.8,0,3.3,0.7,4.4,2.1c0.3,0.4,0.2,0.9-0.2,1.2C21.5,7.4,21.4,7.5,21.2,7.5z"/>
						<path id="Path_4_" class="st17" d="M8.6,16.9c1.3,0.1,2.3-0.4,2.4-1.1c0.1-0.7-0.9-1.4-2.2-1.5l-0.4,0
							c1.3,0.1,2.3-0.4,2.4-1.1c0.1-0.7-0.9-1.4-2.2-1.5"/>
					</g>
					<g id="Group_1_" transform="translate(30.000000, 0.000000)">
						<g id="a_1_">
							<g>
								<path id="Path_5_" class="st18" d="M9,3.2c0.1-0.5,0-1-0.2-1.5C8.7,1.2,8.3,0.8,7.9,0.5C7.5,0.2,7,0,6.4,0
									C6,0,5.7,0.1,5.4,0.2C5.1,0.4,4.8,0.5,4.5,0.8C4.3,0.6,4,0.4,3.7,0.2C3.3,0.1,3,0,2.7,0S2,0.1,1.6,0.2
									C1.3,0.4,1,0.5,0.8,0.8C0.5,1.1,0.3,1.4,0.2,1.7C0.1,2,0,2.3,0,2.7s0.1,0.7,0.2,1C0.3,4,0.5,4.3,0.8,4.6l3.6,3.6
									c0.1,0.1,0.1,0.1,0.2,0.1s0.1,0,0.2-0.1l3.6-3.6C8.7,4.2,8.9,3.7,9,3.2z"/>
								<path id="Path_6_" class="st18" d="M11.6,15.4c0.1-0.3,0-0.6-0.1-0.8c-0.1-0.3-0.3-0.5-0.5-0.7c-0.3-0.2-0.5-0.3-0.9-0.3
									c-0.2,0-0.4,0-0.6,0.1c-0.2,0.1-0.3,0.2-0.5,0.3c-0.1-0.1-0.3-0.3-0.5-0.3c-0.2-0.1-0.4-0.1-0.6-0.1c-0.2,0-0.4,0-0.6,0.1
									c-0.2,0.1-0.4,0.2-0.5,0.3c-0.1,0.1-0.3,0.3-0.3,0.5c-0.1,0.2-0.1,0.4-0.1,0.6s0,0.4,0.1,0.6c0.1,0.2,0.2,0.4,0.3,0.5l2,2.1
									c0,0,0.1,0,0.1,0s0.1,0,0.1,0l2-2.1C11.4,16,11.5,15.7,11.6,15.4z"/>
							</g>
						</g>
					</g>
				</g>
			</g>
		</g>
	</g>
</g>
</svg>
